<svg width="72px" height="72px" viewBox="0 0 72 72" version="1.1" xmlns="http://www.w3.org/2000/svg" xmlns:xlink="http://www.w3.org/1999/xlink">
    <defs></defs>
    <g stroke="none" stroke-width="1" fill="none" fill-rule="evenodd">
        <g id="Group">
            <path d="M39.258,37.8407647 C37.6152353,37.9741765 36.0100588,38.1044118 34.4408824,38.2304118 C31.0150588,38.5078235 27.7729412,38.7714706 24.7425882,39.015 C17.1947647,39.6227647 10.9604118,40.1204118 6.47311765,40.4655882 C1.92970588,40.8398824 0.286411765,40.977 0.342,42.2497059 C2.50570588,44.3001176 5.20623529,45.8878235 8.65905882,46.9159412 C14.3767059,48.6259412 21.1722353,48.4983529 27.9052941,48.0298235 C30.9912353,47.8143529 34.0618235,47.529 37.0106471,47.3145882 C37.7147647,44.352 38.4686471,41.1871765 39.2701765,37.8428824 L39.258,37.8407647 L39.258,37.8407647 Z" fill="#00C1F7"></path>
            <path d="M40.41,33.1348235 L40.3972941,33.1538824 C40.0118824,34.7527059 39.6375882,36.3187059 39.2707059,37.8439412 C38.4691765,41.1877059 37.7152941,44.3530588 37.0111765,47.3156471 C35.2609412,54.6866471 33.8241176,60.7828235 32.7679412,65.1504706 C31.7186471,69.5662941 31.3374706,71.1778235 32.5360588,71.5304118 C35.1529412,70.1062941 37.4955882,68.0325882 39.5354118,65.0684118 C42.939,60.1570588 44.9253529,53.6447647 46.566,47.0885294 C47.3172353,44.0846471 47.9964706,41.0722941 48.7064118,38.1991765 C46.116,36.6151765 43.3413529,34.9237059 40.41,33.1348235 L40.41,33.1348235 Z" fill="#9D2BF7"></path>
            <path d="M66.3855882,41.2538824 C62.7575294,36.522 57.1727647,32.6334706 51.444,29.0541176 C48.8212941,27.4150588 46.17,25.8416471 43.6627059,24.2825294 C41.3539412,26.2609412 38.8868824,28.3791176 36.2832353,30.618 C37.6914706,31.4756471 39.0663529,32.3152941 40.41,33.1348235 C43.3413529,34.9237059 46.116,36.6151765 48.7058824,38.1986471 C55.1731765,42.1485882 60.5048824,45.414 64.35,47.7645882 C68.2417059,50.1374118 69.6541765,50.9992941 70.3545882,49.9521176 C69.8140588,47.0117647 68.5699412,44.1301765 66.3855882,41.2538824 L66.3855882,41.2538824 Z"  fill="#CD1006"></path>
            <path d="M61.5075882,7.34876471 C58.5476471,6.95964706 55.4251765,7.25664706 52.0258235,8.451 C46.3965882,10.4262353 40.9759412,14.517 35.8104706,18.8481176 C33.4355294,20.8360588 31.1151176,22.8764118 28.8508235,24.7849412 C30.0213529,27.5982353 31.2723529,30.6068824 32.5932353,33.7849412 L32.6038235,33.7801765 C33.8585294,32.7028235 35.0846471,31.6471765 36.2832353,30.618 C38.8868824,28.3791176 41.3544706,26.2614706 43.6627059,24.2825294 C49.4105294,19.3537059 54.1736471,15.2878235 57.5872941,12.3617647 C60.9956471,9.42035294 62.2482353,8.33770588 61.5075882,7.34876471 L61.5075882,7.34876471 Z" fill="#F2AF10"></path>
            <path d="M32.5927059,33.7844118 C31.2718235,30.6063529 30.0213529,27.5977059 28.8502941,24.7844118 C25.938,17.7882353 23.5307647,12.0134118 21.8165294,7.86864706 C20.052,3.663 19.4156471,2.14305882 18.2255294,2.58564706 C16.9480588,5.27188235 16.2725294,8.32235294 16.3609412,11.9091176 C16.4991176,17.8935882 18.7252941,24.3259412 21.2516471,30.5867647 C22.4089412,33.4508824 23.6297647,36.2805882 24.7420588,39.0144706 C27.7729412,38.7709412 31.0150588,38.5072941 34.4403529,38.2298824 C33.8135294,36.7157647 33.1972941,35.2328824 32.5927059,33.7844118 L32.5927059,33.7844118 Z" fill="#62A407"></path>
            <path d="M28.5400588,51.0771176 C30.1886471,61.9623529 22.6323529,64.3748824 15.471,61.1809412 C8.33505882,57.9965294 4.31205882,50.4116471 1.84182353,45.7454118 C0.943941176,44.0502353 0.372705882,42.9670588 0.342,42.2497059 C2.50570588,44.3001176 5.20623529,45.8878235 8.65905882,46.9159412 C14.3767059,48.6259412 21.1722353,48.4983529 27.9052941,48.0298235 C28.1774118,49.0780588 28.3923529,50.0945294 28.5400588,51.0771176 L28.5400588,51.0771176 Z" fill="#0099CE"></path>
            <path d="M49.6598824,47.4220588 C60.5112353,49.2368824 60.4725882,57.1627059 55.2409412,62.9756471 C50.0098235,68.7875294 41.5355294,70.2915882 36.3388235,71.1905294 C34.4350588,71.5214118 33.2242941,71.7321176 32.5344706,71.5304118 C35.1513529,70.1062941 37.494,68.0325882 39.5338235,65.0684118 C42.9374118,60.1570588 44.9237647,53.6447647 46.5644118,47.0885294 C47.6433529,47.1520588 48.6788824,47.2584706 49.6598824,47.4220588 L49.6598824,47.4220588 Z" fill="#7E00E0"></path>
            <path d="M69.2327647,25.7140588 C73.1652353,32.5148824 71.9142353,40.9854706 71.1852353,46.2298235 C70.9226471,48.1383529 70.7542941,49.356 70.3540588,49.9521176 C69.8135294,47.0112353 68.5694118,44.1301765 66.3850588,41.2533529 C62.757,36.5214706 57.1722353,32.6329412 51.4434706,29.0535882 C51.8368235,28.0471765 52.2577059,27.0984706 52.7156471,26.2201765 C57.7942941,16.452 65.3172353,18.9412941 69.2327647,25.7140588 L69.2327647,25.7140588 Z" id="Shape" fill="#A60D05"></path>
            <path d="M61.5075882,7.34876471 C58.5476471,6.95964706 55.4251765,7.25664706 52.0258235,8.451 C46.3965882,10.4262353 40.9759412,14.517 35.8104706,18.8481176 C34.9745294,18.162 34.2031765,17.4658235 33.5107059,16.7590588 C25.7452941,8.91582353 30.4851176,2.52847059 38.0911765,0.902647059 C45.7808824,-0.723705882 53.4732353,3.07323529 58.2241765,5.36982353 C59.9712353,6.23011765 61.0771765,6.77382353 61.5075882,7.34876471 L61.5075882,7.34876471 Z" fill="#CB930D"></path>
            <path d="M21.2521765,30.5872941 C20.3373529,31.176 19.4336471,31.7011765 18.5405294,32.1464118 C8.71517647,37.0445294 4.06429412,30.6174706 4.88752941,22.8398824 C5.72770588,15.0352941 11.6767059,8.88988235 15.3741176,5.08817647 C16.7045294,3.71382353 17.5531765,2.83711765 18.2255294,2.58564706 C16.9480588,5.27188235 16.2725294,8.32235294 16.3609412,11.9091176 C16.4996471,17.8941176 18.7258235,24.3264706 21.2521765,30.5872941 L21.2521765,30.5872941 Z" fill="#4B7D05"></path>
        </g>
    </g>
</svg>
